<svg width="15" height="34" viewBox="0 0 15 34" fill="none" xmlns="http://www.w3.org/2000/svg">
<path d="M9.5 30.4343V24.4343L5 26.4343V30.9343L3.5 32.4343V26.9343L0.5 28.4343V24.4343L3.5 22.9343V14.9343L0.5 16.4343V11.9343L3.5 10.4343V2.43427L5 1.43427V9.93427L9.5 7.93427V1.93427L11 0.934265V7.43427L14 5.93427V9.93427L11 11.4343V19.9343L13.5 18.9343V22.9343L11 23.9343V29.9343L9.5 31.4343V30.4343ZM13.5 18.9343L12.5 22.9343V19.4343L11.5 23.4343V19.9343L10.5 23.9343V20.4343V29.9343L9.5 30.4343M9.5 20.9343V23.9343H5V25.4343L6 24.4343H8.5L5 25.9343V22.9343H6M6 22.9343H9V22.4343M6 22.9343L9 21.4343V22.4343M9 22.4343H8M5 14.4343L10 11.9343V20.4343L5 22.4343V14.4343Z" stroke="#D9D9D9"/>
<path d="M4 31.9343V25.9343M4 25.9343V2.43427H4.5V12.9343M4 25.9343L2.5 26.4343L3.5 23.9343H2V26.9343L1.5 24.4343L1 27.4343L4.5 26.4343V12.9343M4 25.9343L2.5 24.4343M3.5 10.9343L1.5 14.9343M1.5 14.9343L1 15.9343V11.9343L3.5 11.4343L3 14.9343H1.5ZM1.5 12.4343H3L1.5 13.4343L3 14.4343L13.5 9.43427V7.93427M5.5 12.212L5.40584 12.28L4.5 12.9343M5.40584 12.28L13 8.93427L5 10.4343M5.40584 12.28L13 7.43427M13.5 7.93427V6.43427L5.5 12.212M13.5 7.93427L5.5 12.212M5 10.4343L10.5 7.93427L4.78532 12.212L5 10.4343ZM5 11.4343L10.5 7.43427V1.43427" stroke="#D9D9D9"/>
</svg>
